<mxfile host="app.diagrams.net" modified="2024-04-17T11:34:04.509Z" agent="Mozilla/5.0 (Windows NT 10.0; Win64; x64) AppleWebKit/537.36 (KHTML, like Gecko) Chrome/123.0.0.0 Safari/537.36 Edg/123.0.0.0" version="24.2.5" etag="Gb0kGAjKz9ninIvUeYC5" type="github">
  <diagram name="Page-1" id="7uFJdFTCeQ8uvkCbXBUw">
    <mxGraphModel>
      <root>
        <mxCell id="0" />
        <mxCell id="1" parent="0" />
      </root>
    </mxGraphModel>
  </diagram>
</mxfile>
